<svg xmlns="http://www.w3.org/2000/svg" viewBox="0 0 800 800">
  <defs>
    <linearGradient id="m" x1="0" y1="0" x2="1" y2="1">
      <stop offset="0" stop-color="#f5eadb"/>
      <stop offset="0.4" stop-color="#dcb385"/>
      <stop offset="0.75" stop-color="#b26c3d"/>
      <stop offset="1" stop-color="#543020"/>
    </linearGradient>
    <radialGradient id="s" cx="40%" cy="30%" r="70%">
      <stop offset="0" stop-color="#ead2b5" stop-opacity="0.8"/>
      <stop offset="1" stop-color="#2f1910" stop-opacity="0"/>
    </radialGradient>
  </defs>
  <rect width="800" height="800" fill="#2f1910"/>
  <rect width="800" height="800" fill="url(#s)"/>
  <g transform="translate(180 120)">
    <path d="M220 40c-98 0-176 78-176 176 0 72 26 120 58 154 16 18 20 40 22 64l2 22h188l2-22c2-24 6-46 22-64 32-34 58-82 58-154C396 118 318 40 220 40z" fill="url(#m)"/>
    <path d="M144 122c32-38 92-52 142-34 16 6 30 14 40 22-14-44-56-80-106-92-58-14-122 10-150 56 26-6 52 4 74 48z" fill="#2f1910" opacity="0.18"/>
    <path d="M108 458h224c10 0 18 8 18 18v84c0 10-8 18-18 18H108c-10 0-18-8-18-18v-84c0-10 8-18 18-18z" fill="url(#m)"/>
    <path d="M80 580h280c12 0 22 10 22 22v22c0 12-10 22-22 22H80c-12 0-22-10-22-22v-22c0-12 10-22 22-22z" fill="#000" opacity="0.28"/>
  </g>
</svg>

