<svg xmlns="http://www.w3.org/2000/svg" viewBox="0 0 800 800">
  <defs>
    <linearGradient id="m" x1="0" y1="0" x2="1" y2="1">
      <stop offset="0" stop-color="#f5eadb"/>
      <stop offset="0.35" stop-color="#dcb385"/>
      <stop offset="0.75" stop-color="#b26c3d"/>
      <stop offset="1" stop-color="#543020"/>
    </linearGradient>
    <radialGradient id="s" cx="50%" cy="42%" r="70%">
      <stop offset="0" stop-color="#c98a55" stop-opacity="0.55"/>
      <stop offset="1" stop-color="#2f1910" stop-opacity="0"/>
    </radialGradient>
  </defs>
  <rect width="800" height="800" fill="#2f1910"/>
  <rect width="800" height="800" fill="url(#s)"/>
  <g transform="translate(120 140)" fill="none" stroke="url(#m)" stroke-linecap="round">
    <path d="M280 40c140 0 260 110 260 250 0 132-104 240-236 250" stroke-width="34"/>
    <path d="M304 540c-106-4-190-90-190-196 0-114 92-206 206-206" stroke-width="30" opacity="0.95"/>
    <path d="M320 182c-72 0-130 58-130 130 0 68 52 124 118 130" stroke-width="26" opacity="0.9"/>
    <path d="M332 416c34-4 60-32 60-66 0-38-30-68-68-68" stroke-width="22" opacity="0.85"/>
  </g>
  <rect x="240" y="640" width="320" height="44" rx="22" fill="#000" opacity="0.28"/>
</svg>

