<svg xmlns="http://www.w3.org/2000/svg" viewBox="0 0 800 800">
  <defs>
    <linearGradient id="m" x1="0" y1="0" x2="1" y2="1">
      <stop offset="0" stop-color="#f5eadb"/>
      <stop offset="0.35" stop-color="#dcb385"/>
      <stop offset="0.75" stop-color="#b26c3d"/>
      <stop offset="1" stop-color="#543020"/>
    </linearGradient>
    <radialGradient id="s" cx="40%" cy="35%" r="70%">
      <stop offset="0" stop-color="#c98a55" stop-opacity="0.55"/>
      <stop offset="1" stop-color="#2f1910" stop-opacity="0"/>
    </radialGradient>
  </defs>
  <rect width="800" height="800" fill="#2f1910"/>
  <rect width="800" height="800" fill="url(#s)"/>
  <g transform="translate(180 140)" fill="url(#m)">
    <path d="M220 30c-86 0-156 70-156 156 0 60 26 110 74 140-10 40-32 76-64 104l24 28c24-20 44-46 58-76l0 78h128v-78c14 30 34 56 58 76l24-28c-32-28-54-64-64-104 48-30 74-80 74-140C376 100 306 30 220 30z"/>
    <path d="M156 192c0-36 28-64 64-64s64 28 64 64c0 10-2 18-6 26h-116c-4-8-6-16-6-26z" fill="#2f1910" opacity="0.16"/>
    <circle cx="196" cy="188" r="10" fill="#2f1910" opacity="0.55"/>
    <circle cx="244" cy="188" r="10" fill="#2f1910" opacity="0.55"/>
    <path d="M180 236c10 14 24 22 40 22s30-8 40-22" fill="none" stroke="#2f1910" stroke-opacity="0.45" stroke-width="10" stroke-linecap="round"/>
    <rect x="86" y="518" width="268" height="44" rx="22" fill="#000" opacity="0.28"/>
  </g>
</svg>

