<svg xmlns="http://www.w3.org/2000/svg" viewBox="0 0 800 800">
  <defs>
    <linearGradient id="m" x1="0" y1="0" x2="1" y2="1">
      <stop offset="0" stop-color="#f5eadb"/>
      <stop offset="0.4" stop-color="#dcb385"/>
      <stop offset="0.75" stop-color="#b26c3d"/>
      <stop offset="1" stop-color="#543020"/>
    </linearGradient>
    <radialGradient id="s" cx="45%" cy="30%" r="70%">
      <stop offset="0" stop-color="#c98a55" stop-opacity="0.55"/>
      <stop offset="1" stop-color="#2f1910" stop-opacity="0"/>
    </radialGradient>
  </defs>
  <rect width="800" height="800" fill="#2f1910"/>
  <rect width="800" height="800" fill="url(#s)"/>
  <g transform="translate(210 120)">
    <path d="M190 50c-98 0-176 78-176 176 0 76 30 120 62 154 18 20 24 44 26 72l2 20h172l2-20c2-28 8-52 26-72 32-34 62-78 62-154C366 128 288 50 190 50z" fill="url(#m)"/>
    <path d="M114 244c0-44 34-78 76-78s76 34 76 78c0 18-6 34-16 46h-120c-10-12-16-28-16-46z" fill="#2f1910" opacity="0.18"/>
    <path d="M70 470h240c10 0 18 8 18 18v90c0 10-8 18-18 18H70c-10 0-18-8-18-18v-90c0-10 8-18 18-18z" fill="url(#m)"/>
    <rect x="30" y="592" width="320" height="44" rx="22" fill="#000" opacity="0.28"/>
  </g>
</svg>

