<svg xmlns="http://www.w3.org/2000/svg" viewBox="0 0 1200 800">
  <defs>
    <linearGradient id="bg" x1="0" y1="0" x2="1" y2="1">
      <stop offset="0" stop-color="#2f1910"/>
      <stop offset="0.6" stop-color="#633826"/>
      <stop offset="1" stop-color="#b26c3d"/>
    </linearGradient>
    <radialGradient id="glow" cx="55%" cy="35%" r="55%">
      <stop offset="0" stop-color="#ead2b5" stop-opacity="0.85"/>
      <stop offset="0.55" stop-color="#c98a55" stop-opacity="0.35"/>
      <stop offset="1" stop-color="#000000" stop-opacity="0"/>
    </radialGradient>
    <linearGradient id="metal" x1="0" y1="0" x2="0" y2="1">
      <stop offset="0" stop-color="#f5eadb"/>
      <stop offset="0.35" stop-color="#dcb385"/>
      <stop offset="0.7" stop-color="#b26c3d"/>
      <stop offset="1" stop-color="#543020"/>
    </linearGradient>
    <filter id="noise" x="-20%" y="-20%" width="140%" height="140%">
      <feTurbulence type="fractalNoise" baseFrequency="0.8" numOctaves="2" stitchTiles="stitch"/>
      <feColorMatrix type="matrix" values="
        0 0 0 0 0
        0 0 0 0 0
        0 0 0 0 0
        0 0 0 .09 0"/>
    </filter>
  </defs>

  <rect width="1200" height="800" fill="url(#bg)"/>
  <rect width="1200" height="800" fill="url(#glow)"/>
  <rect width="1200" height="800" filter="url(#noise)"/>

  <!-- Abstract sculpture silhouette -->
  <g transform="translate(690 115)">
    <path d="M172 520c-18-92-72-118-118-168-50-54-40-136 18-188 58-52 64-120 18-160-46-40-130-12-178 52-62 82-56 208 20 294 54 60 86 96 94 170l146 0z"
      fill="url(#metal)" opacity="0.95"/>
    <path d="M14 520c10-78-18-120-64-172-76-86-82-212-20-294C-22 -10 62-38 108 2c46 40 40 108-18 160-58 52-68 134-18 188 46 50 100 76 118 168H14z"
      fill="#2f1910" opacity="0.18"/>
    <rect x="0" y="520" width="240" height="24" rx="12" fill="#2f1910" opacity="0.35"/>
  </g>

  <g opacity="0.25">
    <circle cx="170" cy="130" r="110" fill="#ead2b5"/>
    <circle cx="1020" cy="660" r="140" fill="#c98a55"/>
  </g>
</svg>

